<mxfile host="Electron" modified="2023-07-07T13:20:28.421Z" agent="Mozilla/5.0 (Windows NT 10.0; Win64; x64) AppleWebKit/537.36 (KHTML, like Gecko) draw.io/21.5.0 Chrome/112.0.5615.204 Electron/24.5.1 Safari/537.36" etag="TJMSqnlKL89Ioomx0DLY" version="21.5.0" type="device">
  <diagram name="Page-1" id="ZNFSewRVyzB36h-bN6S9">
    <mxGraphModel dx="1098" dy="828" grid="1" gridSize="10" guides="1" tooltips="1" connect="1" arrows="1" fold="1" page="1" pageScale="1" pageWidth="850" pageHeight="1100" math="0" shadow="0">
      <root>
        <mxCell id="0" />
        <mxCell id="1" parent="0" />
        <mxCell id="pKghnQxsx8qcmmxohcbf-1" value="Aktifitas Diagram (Acitivity Diagram)" style="swimlane;childLayout=stackLayout;resizeParent=1;resizeParentMax=0;startSize=20;html=1;" vertex="1" parent="1">
          <mxGeometry x="150" y="20" width="400" height="610" as="geometry" />
        </mxCell>
        <mxCell id="pKghnQxsx8qcmmxohcbf-2" value="User" style="swimlane;startSize=20;html=1;" vertex="1" parent="pKghnQxsx8qcmmxohcbf-1">
          <mxGeometry y="20" width="200" height="590" as="geometry" />
        </mxCell>
        <mxCell id="pKghnQxsx8qcmmxohcbf-6" value="Mengakses&lt;br&gt;Aplikasi" style="shape=parallelogram;perimeter=parallelogramPerimeter;whiteSpace=wrap;html=1;fixedSize=1;" vertex="1" parent="pKghnQxsx8qcmmxohcbf-2">
          <mxGeometry x="40" y="50" width="120" height="60" as="geometry" />
        </mxCell>
        <mxCell id="pKghnQxsx8qcmmxohcbf-21" value="Memilih Modul" style="rounded=0;whiteSpace=wrap;html=1;" vertex="1" parent="pKghnQxsx8qcmmxohcbf-2">
          <mxGeometry x="30" y="240" width="120" height="60" as="geometry" />
        </mxCell>
        <mxCell id="pKghnQxsx8qcmmxohcbf-23" value="Menggunakan&amp;nbsp; Filter Modul" style="rounded=0;whiteSpace=wrap;html=1;" vertex="1" parent="pKghnQxsx8qcmmxohcbf-2">
          <mxGeometry x="30" y="330" width="120" height="60" as="geometry" />
        </mxCell>
        <mxCell id="pKghnQxsx8qcmmxohcbf-22" style="edgeStyle=orthogonalEdgeStyle;rounded=0;orthogonalLoop=1;jettySize=auto;html=1;" edge="1" parent="pKghnQxsx8qcmmxohcbf-2" source="pKghnQxsx8qcmmxohcbf-21" target="pKghnQxsx8qcmmxohcbf-23">
          <mxGeometry relative="1" as="geometry">
            <mxPoint x="90" y="350" as="targetPoint" />
          </mxGeometry>
        </mxCell>
        <mxCell id="pKghnQxsx8qcmmxohcbf-29" value="Melihat Laporan" style="shape=parallelogram;perimeter=parallelogramPerimeter;whiteSpace=wrap;html=1;fixedSize=1;" vertex="1" parent="pKghnQxsx8qcmmxohcbf-2">
          <mxGeometry x="30" y="420" width="120" height="60" as="geometry" />
        </mxCell>
        <mxCell id="pKghnQxsx8qcmmxohcbf-5" value="System" style="swimlane;startSize=20;html=1;" vertex="1" parent="pKghnQxsx8qcmmxohcbf-1">
          <mxGeometry x="200" y="20" width="200" height="590" as="geometry" />
        </mxCell>
        <mxCell id="pKghnQxsx8qcmmxohcbf-12" value="Menerima Permintaan&lt;br&gt;Akses" style="rounded=0;whiteSpace=wrap;html=1;" vertex="1" parent="pKghnQxsx8qcmmxohcbf-5">
          <mxGeometry x="50" y="50" width="120" height="60" as="geometry" />
        </mxCell>
        <mxCell id="pKghnQxsx8qcmmxohcbf-18" value="Menampilkan&lt;br&gt;Modul" style="shape=parallelogram;perimeter=parallelogramPerimeter;whiteSpace=wrap;html=1;fixedSize=1;" vertex="1" parent="pKghnQxsx8qcmmxohcbf-5">
          <mxGeometry x="50" y="240" width="120" height="60" as="geometry" />
        </mxCell>
        <mxCell id="pKghnQxsx8qcmmxohcbf-25" value="Menjalankan Filter Modul" style="rounded=0;whiteSpace=wrap;html=1;" vertex="1" parent="pKghnQxsx8qcmmxohcbf-5">
          <mxGeometry x="50" y="330" width="120" height="60" as="geometry" />
        </mxCell>
        <mxCell id="pKghnQxsx8qcmmxohcbf-14" value="Mengarahkan&lt;br&gt;ke Beranda" style="shape=parallelogram;perimeter=parallelogramPerimeter;whiteSpace=wrap;html=1;fixedSize=1;" vertex="1" parent="pKghnQxsx8qcmmxohcbf-5">
          <mxGeometry x="50" y="150" width="120" height="60" as="geometry" />
        </mxCell>
        <mxCell id="pKghnQxsx8qcmmxohcbf-13" style="edgeStyle=orthogonalEdgeStyle;rounded=0;orthogonalLoop=1;jettySize=auto;html=1;" edge="1" parent="pKghnQxsx8qcmmxohcbf-5" source="pKghnQxsx8qcmmxohcbf-12" target="pKghnQxsx8qcmmxohcbf-14">
          <mxGeometry relative="1" as="geometry">
            <mxPoint x="200" y="210" as="targetPoint" />
          </mxGeometry>
        </mxCell>
        <mxCell id="pKghnQxsx8qcmmxohcbf-17" style="edgeStyle=orthogonalEdgeStyle;rounded=0;orthogonalLoop=1;jettySize=auto;html=1;" edge="1" parent="pKghnQxsx8qcmmxohcbf-5" source="pKghnQxsx8qcmmxohcbf-14" target="pKghnQxsx8qcmmxohcbf-18">
          <mxGeometry relative="1" as="geometry">
            <mxPoint x="200" y="290" as="targetPoint" />
          </mxGeometry>
        </mxCell>
        <mxCell id="pKghnQxsx8qcmmxohcbf-11" style="edgeStyle=orthogonalEdgeStyle;rounded=0;orthogonalLoop=1;jettySize=auto;html=1;" edge="1" parent="pKghnQxsx8qcmmxohcbf-1" source="pKghnQxsx8qcmmxohcbf-6" target="pKghnQxsx8qcmmxohcbf-12">
          <mxGeometry relative="1" as="geometry">
            <mxPoint x="260" y="100" as="targetPoint" />
          </mxGeometry>
        </mxCell>
        <mxCell id="pKghnQxsx8qcmmxohcbf-19" style="edgeStyle=orthogonalEdgeStyle;rounded=0;orthogonalLoop=1;jettySize=auto;html=1;" edge="1" parent="pKghnQxsx8qcmmxohcbf-1" source="pKghnQxsx8qcmmxohcbf-18" target="pKghnQxsx8qcmmxohcbf-21">
          <mxGeometry relative="1" as="geometry">
            <mxPoint x="150" y="290" as="targetPoint" />
          </mxGeometry>
        </mxCell>
        <mxCell id="pKghnQxsx8qcmmxohcbf-24" style="edgeStyle=orthogonalEdgeStyle;rounded=0;orthogonalLoop=1;jettySize=auto;html=1;" edge="1" parent="pKghnQxsx8qcmmxohcbf-1" source="pKghnQxsx8qcmmxohcbf-23" target="pKghnQxsx8qcmmxohcbf-25">
          <mxGeometry relative="1" as="geometry">
            <mxPoint x="290" y="370" as="targetPoint" />
          </mxGeometry>
        </mxCell>
        <mxCell id="pKghnQxsx8qcmmxohcbf-28" style="edgeStyle=orthogonalEdgeStyle;rounded=0;orthogonalLoop=1;jettySize=auto;html=1;" edge="1" parent="1" source="pKghnQxsx8qcmmxohcbf-27" target="pKghnQxsx8qcmmxohcbf-29">
          <mxGeometry relative="1" as="geometry">
            <mxPoint x="280" y="490" as="targetPoint" />
          </mxGeometry>
        </mxCell>
        <mxCell id="pKghnQxsx8qcmmxohcbf-27" value="Menghasilkan Laporan" style="shape=parallelogram;perimeter=parallelogramPerimeter;whiteSpace=wrap;html=1;fixedSize=1;" vertex="1" parent="1">
          <mxGeometry x="400" y="460" width="120" height="60" as="geometry" />
        </mxCell>
        <mxCell id="pKghnQxsx8qcmmxohcbf-26" style="edgeStyle=orthogonalEdgeStyle;rounded=0;orthogonalLoop=1;jettySize=auto;html=1;" edge="1" parent="1" source="pKghnQxsx8qcmmxohcbf-25" target="pKghnQxsx8qcmmxohcbf-27">
          <mxGeometry relative="1" as="geometry">
            <mxPoint x="460" y="490" as="targetPoint" />
          </mxGeometry>
        </mxCell>
        <mxCell id="pKghnQxsx8qcmmxohcbf-31" value="Keluar dari Aplikasi" style="rounded=0;whiteSpace=wrap;html=1;" vertex="1" parent="1">
          <mxGeometry x="180" y="550" width="120" height="60" as="geometry" />
        </mxCell>
        <mxCell id="pKghnQxsx8qcmmxohcbf-30" style="edgeStyle=orthogonalEdgeStyle;rounded=0;orthogonalLoop=1;jettySize=auto;html=1;" edge="1" parent="1" source="pKghnQxsx8qcmmxohcbf-29" target="pKghnQxsx8qcmmxohcbf-31">
          <mxGeometry relative="1" as="geometry">
            <mxPoint x="240" y="580" as="targetPoint" />
          </mxGeometry>
        </mxCell>
      </root>
    </mxGraphModel>
  </diagram>
</mxfile>
